/* XPM */
static char *b1b9944b838046f9fe6928526d7a886bgsun5hQzK2n1aAph[] = {
/* columns rows colors chars-per-pixel */
"32 32 11 1 ",
"  c None",
". c #202020",
"X c #4A5252",
"o c #9C4A39",
"O c #DE5A39",
"+ c #FF9439",
"@ c #FFD539",
"# c #7B7B83",
"$ c #A4A4C5",
"% c #DECDF6",
"& c white",
/* pixels */
"                                ",
"                                ",
"                                ",
"                                ",
"                                ",
"                                ",
"                                ",
"             ......             ",
"           ..++++++..           ",
"          .+++++++++O.          ",
"         .+@@++++++++O.         ",
"        .+@&&@+++++++OO.        ",
"        .+@&&@+++++++OO.        ",
"       .+++@@++++++++OOO.       ",
"       .++++++++++++OOOO.       ",
"       .++++++++++++OOOO.       ",
"       .o++++++++++OOOOo.       ",
"       .Xo++XXX++OOOOOoX.       ",
"       .XXXX$&$XOOOoXXXX.       ",
"        .#XX&&&XXXXXXX#.        ",
"        .%&#$&$XXXXX#%$.        ",
"         .%&###%%%%%%$.         ",
"          .$%%%%%%%$$.          ",
"           ..$$$$$$..           ",
"             ......             ",
"                                ",
"                                ",
"                                ",
"                                ",
"                                ",
"                                ",
"                                "
};
