/* XPM */
static char *result[] = {
/* columns rows colors chars-per-pixel */
"64 64 5 1 ",
"  c #472205",
". c #6F4117",
"X c #724F34",
"o c #8B6344",
"O c #B69476",
/* pixels */
"ooooooooooo.oooooooooooooooooooooooooooooooooooooooooooooooooooo",
"oooo..ooooo oooooooooooooooooooooooooooooooooooooooooooooooooooo",
"oooo  oo..OOoooooooooooooooooooooooooooooooooooooooooooooooooooo",
"oooOOOoo  oooooooooooooooooooooXXXXooooooooooooooooooooooooooooo",
"oooooooOOOoooooooooooooooooooooXXXXooooooooooooooooooooooooooooo",
"..oooooooooooooooooooooooooooooooooooooooooooooooooooooooooooooo",
"  ooooooooooooooooo..ooooooooooooooooooooooooo...ooooooooooooo..",
"OOooooooooooooooooo  ...ooooooooooooooooooooo.   ooooooooooooo  ",
"ooooooooooooooooooOOO   ooooooooooooooooooooo  OOoooooooooooOOOO",
"ooooooooooooooooooooOOOOooooooooooooooooooooOOOooooooooooooooooo",
"oooooooooooooooooooooooooooooooooooooooooooooooooooooooooooooooo",
"oooooooooooooooooooooooooooooooooooooooooooooooooooooooooooooooo",
"ooooooooooooooooooooooooooooooooooooooooooooooooooooooooooooXXXX",
"ooo..oooooooooooooooooooooooooooooooooooooooooooooooooooooooXXXX",
"ooO  ooooooooooooooooooooooooooooooooooooooooooooooooooooooooooo",
"oooooooooooooooooooooooooooooooooooooooooooooooooooooooooooooooo",
"oooooooooooooooXXXXooooooooooooooooooXXXXooooooooooooooooooooooo",
"XXXXoooooooooooXXXXooooooo..ooo..ooooXXXXoooooo...oooooooooooooo",
"XXXXoooooooooooooooooooooo  ...  oooooooooooooo   oooooooooooooo",
"oooooooooooooooooooooooooOO     OooooooooooooooOO ....oooooooooo",
"ooooooooooooooooooooooooooOOOOOOooooooooooooooOOO     oooooooooo",
"oooooooooooooooooooooooooooooooooooooooooooooooooooooooooooooooo",
"oooXXXXooooooooooooooooooooooooooooooooooooooooooooooooooooooooo",
"oooXXXXooooooooooooooooooooooooooooooooooooooooooooooooooooooooo",
"oooooooooooooooooooooooooooooooooooooooooooooooooooooooooooooooo",
"ooooooooooooooooooooooXXXXoooooooooooooooooooooooooooooooooooooo",
"ooooooooooooooooooooooXXXXoooooooooooooooooooooooooXXXXooooooooo",
"oooooooooooooooooooooooooooooooooooooooooooooooooooXXXXooooooooo",
"oooooooooooooooooooooooooooooooooooooooooooooooooooooooooooooooo",
"ooooooooooooooooooooooooooooooooooooooo...oooooooooooooooooooooo",
"ooooooooooooooooooooooooooooooooooooo..   oooooooooooooooooooooo",
"ooXXXXooooooo......ooooooooooooooooo.   OOoooooooooooooooooooooo",
"ooXXXXoooooo.      ooooooooooooooooo  OOoooooooooooooooooooooooo",
"ooooooooooo. OOOOOOooooooooooooooooOOOoooooooooooooooooooooooooo",
"ooooooooooo  Ooooooooooooooooooooooooooooooooooooooooooooooooooo",
"ooooooooooOOOooooooooooooooooooooooooooooooooooooooooooooooooooo",
"ooooooooooooooooooooooooooooooooooooooooooooooooooooo..ooooooooo",
"ooooooooooooooooooooooooooooooooooooooXXXXooooooooooo  .oooooooo",
"oooooooooooooooXXXXoooooooooooooooooooXXXXooooooooooOO  oooooooo",
"oooooooooooooooXXXXooooooooooooooooooooooooooooooooooooooooooooo",
"oooooooooooooooooooooooooooooooooooooooooooooooooooooooooooooooo",
"oooooooooooooooooooooooooooooooooooooooooooooooooooooooooooooooo",
"oooooooooooooooooooooooooooooooooooooooooooooooooooooooooooooooo",
"ooooo....oooooooooooooooooo..ooooooooooo.....ooooooooooooooooooo",
"ooooo    oooooooooooooooooo  oooooooooo.     .oooooooooooooooooo",
"ooooOOOOOooooooooooooooooo. Ooooooooooo  OO   oooooooooooooooooo",
"oooooooooooooooooooooooooo Oooooooooooo OoOOO ..oooooooXXXXooooo",
"XXoooooooooooooooooooooooOOoooooooooooOOooooOO  .ooooooXXXXooooo",
"XXoooooooooooooooooooooooooooooooooooooooooooOO  oooooooooooooXX",
"ooooooooooooooooooooooooooooooooooooooooooooooooooooooooooooooXX",
"ooooooooooooo.ooooooooooooooooXXXXoooooooooooooooooooooooooooooo",
"oooooo....... ooooooooooooooooXXXXoooooooooooooooooooooooooooooo",
"oooooo        oooooooooooooooooooooooooooooooooooooooooooooooooo",
"oooooOOOOOOOOooooooooooooooooooooooooooooooooooooooooooooooooooo",
"oooooooooooooooooooooooooooooooooooooooooooooooooooooooooooooooo",
"ooooooooooooooooooooooooooooooooooo.oooooooooooooooooooooooooooo",
"oooooooooooooooooooooo.oooooooooooo .oooo...oooooooooooooooooooo",
"oooooooooooooooooooooo oooooooooooOO ....   oooooooooooooooooooo",
"ooooXXXXoooooooooooooOOooooooooooooO      OOoooooooooooooooooooo",
"ooooXXXXoooooooooooooooooooooooooooOOOOOOOoooooooooooooooooooooo",
"ooooooooooooooooooooooooooooooooooooooooooooooooooooooXXXXoooooo",
"ooooooooooooooooooooooooooooooooooooooooooooooooooooooXXXXoooooo",
"oooooooooooooooooooooooooooooXXXXooooooooooooooooooooooooooooooo",
"oooooooooooooooooooooooooooooXXXXooooooooooooooooooooooooooooooo"
};
