/* XPM */
static char *result[] = {
/* columns rows colors chars-per-pixel */
"64 64 4 1 ",
"  c #472205",
". c #6F4117",
"X c #8B6344",
"o c #B69476",
/* pixels */
"XXXXXXoXXXXXXXXXXXXXXXXXXXXXXXoXXXXXXXXXXXXXXXXXXXXXXXXXXXXXXXXX",
"XXXXXo.oXXXXXXXXXXXXXXXXXXXXXo.oXXXXXXXXXXXXXXXXXXXXXXXXXXXXXXXX",
"XXXXXo oXXXXXXXXXXXXXXXXXXXXXo .oXXXXXXXXXXXXXXXXXXXXXXXXXXXXXXX",
"XXXXo. oXXXXXXXXXXXXXXXXXXXXXXo .oXXXXXXoooXXXXXXXXXXXXXXXXXXXXX",
"XXXXo  oXXXXXXXXXXXXXXXXXXXXXXXo oXXXXXo...oooXXXXXXXXXXXXXXXXXX",
"XXXo. oXXXXXXXXXXXXXXXXXXXXXXXXo oXXXXXo   ...oXXXXXXXXXXXXXXXXX",
"XXXo  oXXXXXXXXXXXXXXXXXXXXXXXXo .oXXXXXooo   .ooXXXXXXXXXXXXXXX",
"XXo. oXXXXXXXXXXXXXXXXXXXXXXXXXXo oXXXXXXXXooo ..oXXXXXXXXXXXXXX",
"XXo  oXXXXXXXXXXXXXXXXXXXXoXXXXXo .oXXXXXXXXXXo  .oXXXXXXXXXXXXX",
"Xo. oXXXXXXXXXXXXXXXXXXXXo.oXXXXXo oXXXXXXXXXXXoo oXXXXXXXXXXXXX",
"Xo oXXXXXXXXXXXXXXXXXXXXo. oXXXXXXoXXXXXXXXXXXXXo .oXXXXXXXXXXXX",
"o. oXXXXXXXXXXXXXXXXXXXo. oXXXXXXXXXXXXXXXXXXXXXXo oXXXXXXXXXXXX",
"o oXXXXXXXXXXXXXXXXXXXXo  oXXXXXXXXXXXXXXXXXXXXXXo .oXXXXXXXXXXX",
"o oXXXXXXXXXXXXXXXXXXXXo oXXXXXXXXXXXXXXXXXXXXXXXXo oXXXXXXXXXXX",
"o oXXXXXXXXXXXXXXXXXXXo. oXXXXXXXXXXXXXXXXXXXXXXXXo .oXXXXXXXXXX",
"XoXXXXXXXXXXXXXXXXXXXXo oXXXXXXXXXXXXXXXXXXXXXXXXXXo .ooXXXXXXXX",
"XXXXXXXXXXXXXXXXXXXXXXo oXXXXXXXXXXXXXXXXXXXXXXXXXXXo ..oXXXXXXX",
"XXXXXXXXXXXoooXXXXXXXXo oXXXXXXXXXXXXXXXXXXXXXXXXXXXXo  oXXXXXXX",
"XXXXXXXXXXo...oXXXXXXo. oXXXXXXXXXXXXXXXXXXXXXXXXXXXXXo oXXXXXXX",
"XXXXXXXXXo.   oXXXXXXo oXXXXXXXXXXXXXXXXXXXXXXXXXXXXXXXoXXXXXXXX",
"XXXXXXXXo.  ooXXXXXXXo oXXXXXXXXXXXXXXXXXXXXXXXXXXXXXXXXXXXXXXXX",
"XXXXXXXXo ooXXXXXXXXo. oXXXXXXXXXXXXXXXXXXXXoXXXXXXXXXXXXXXXXXXX",
"XXXXXXXo. oXXXXXXXXXo oXXXXXXXXXXXXXXXXXXXXo.oXXXXXXXXXXXXXXXXXX",
"XXXXXXXo oXXXXXXXXXXo oXXXXXXXXXXXXXXXXXXXXo .oXXXXXXXXXXXXXXXXX",
"XXXXXXXo oXXXXXXXXXo. oXXXXXooXXXXXXXXXXXXXXo .oXXXXXXXXXXXXXXXX",
"XXXXXXXo oXXXXXXXXXo oXXXXXo..oXXXXXXXXXXXXXXo .oXXXXXXXXXXXXXXX",
"XXXXXXo. oXXXXXXXXo. oXXXXXo  .oXXXXXXXXXXXXXXo .oXXXXXXXXXXXXXX",
"XXXXXXo. oXXXXXXXXo oXXXXXXXoo .oXXXXXXXXXXXXXXo .oXXXXXXXXXXXXX",
"XXXXXo. oXXXXXXXXXXoXXXXXXXXXXo .oXXXXXXXXXXXXXXo .oXXXXXXXXXXXX",
"XXXXo.  oXXXXXXXXXXXXXXXXXXXXXXo oXXXXXXXXXXXXXXXo oXXXXXXXXXXXX",
"XXXo. ooXXXXXXXXXXXXXXXXXXXXXXXo .oXXXXXXXXXXXXXXo .oXXXXXXXXXXX",
"XXo.  oXXXXXXXXXXXXXXXXXXXXXXXXXo .oXXXXXXXXXXXXXXo oXXXXXXXXXXX",
"XXo  oXXXXXXXXXXXXXXXXXXXXXXXXXXXo oXXXXXXXXXXXXXXo .oXXXXXXXXXX",
"Xo. oXXXXXXXXXXXXXXXXXXXXXXXXXXXXo .oXXXXXXXXXXXXXXo oXXXXXXXXXX",
"Xo  oXXXXXXXXooXXXXXXXXXXXXXXXXXXXo oXXXXXXXXXXXXXXo .oXXXXXXXXX",
"Xo oXXXXXXXXo..oXXXXXXXXXXXXXXXXXXo .oXXXXXXXXXXXXXXo .oXXXXXXXX",
"XXoXXXXXXXXXo  oXXXXXXXXXXXXXXXXXXXo oXXXXXXXXXXXXXXXo .oXXXXXXX",
"XXXXXXXXXXXo. oXXXXXXXXXXXXXXXXXXXXo oXXXXXXXXXXXXXXXXo oXXXXXXX",
"XXXXXXXXXXXo oXXXXXXXXXXXXXXXXXXXXXo .oXXXXXXXXXXXXXXXo oXXXXXXX",
"XXXXXXXXXXXo oXXXXXXXXXXXXXXXXXXXXXo .oXXXXXXXXXXXXXXXo .oXXXXXX",
"XXXXXXXXXXo. oXXXXXXXXXXXXXXXXXXXXXo .oXXXXXXXXXXXXXXXXo oXXXXXX",
"XXXXXXXXXXo oXXXXXXXXXXXXXXXXXXXXXXXo oXXXXXXXXXXXXXXXXo .oXXXXX",
"XXXXXXXXXXo oXXXXXXXXXXXXXXXXXXXXXXXo oXXXXXXXXXXXXXXXXXo .oXXXX",
"XXXXXXXXXo. oXXXXXXXXXXXXXXXXXXXXXXXo .oXXXXXXXXXXXXXXXXXo .oXXX",
"XXXXXXXXo. oXXXXXXXXXXXXXXXXXXXXXXXXo .oXXXXXXXXXXXXXXXXXXo oooX",
"XXXXXXXXo oXXXXXXXXXXXoXXXXXXXXXXXXXXo oXXXXXXXXXXXXXXXXXXo ...o",
"XXXXXXXo. oXXXXXXXXXXo oXXXXXXXXXXXXXo oXXXXXXXXXXXXXXXXXXXo   o",
"XXXXXoo. oXXXXXXXXXXXo oXXXXXXXXXXXXXo .oXXXXXXXXXXXXXXXXXXXoooX",
"XXXXo..  oXXXXXXXXXXXo .oXXXXXXXXXXXXo .oXXXXXXXXXXXXXXXXXXXXXXX",
"XXXXo  ooXXXXXXXXXXXXo .oXXXXXXXXXXXXXo oXXXXXXXXXXXXXXXXXXXXXXX",
"XXXo. oXXXXXXXXXXXXXXXo .oXXXXXXXXXXXXo oXXXXXXXXXXXXXXXXXXXXXXX",
"XXXo oXXXXXXXXXXXXXXXXo  .oXXXXXXXXXXXo oXXXXXXXXoXXXXXXXXXXXXXX",
"XXo. oXXXXXXXXXXXXXXXXXoo oXXXXXXXXXXXo oXXXXXXXo.oXXXXXXXXXXXXX",
"XXo  oXXXXXXXXXXXXXXXXXXo oXXXXXXXXXXXXoXXXXXXXXo oXXXXXXXXXXXXX",
"XXXooXXXXXXXXXXXXXXXXXXXo oXXXXXXXXXXXXXXXXXXXXXo .oXXXXXXXXXXXX",
"XXXXXXXXXXXXXXXXXXXXXXXo. oXXXXXXXXXXXXXXXXXXXXXXo .oXXXXXXXXXXX",
"XXXXXXXXXXXXXXXXXXXXXXXo. oXXXXXXXXXXXXXXXXXXXXXXXo oXXXXXXXXXXX",
"XXXXXXXXXXXXXXXXXXXXXXXo oXXXXXXXXXXXXXXXXXXXXXXXXo oXXXXXXXXXXX",
"XXXXXXXXXXXXXXXXXXXXXXo. oXXXXXXXXXXXXXXXXXXXXXXXXo .oXXXXXXXXXX",
"XXXXXXXXXXXXXXXXXXXXXXo oXXXXXXXXXXXXXXXXXXXXXXXXXXo oXXXXXXXXXX",
"XXXXXXXXXXXXXXXXXXXXXo. oXXXXXXXXXXXXXXXXXXXXXXXXXXo .oXXXXXXXXX",
"XXXXXXXXXXXXXXXXXXXXXo. oXXXXXXXXXXXXXXXXXXXXXXXXXXXo oXXXXXXXXX",
"XXXXXXXXXXXXXXXXXXXXXXooXXXXXXXXXXXXXXXXXXXXXXXXXXXXo .oXXXXXXXX",
"XXXXXXXXXXXXXXXXXXXXXXXXXXXXXXXXXXXXXXXXXXXXXXXXXXXXo .oXXXXXXXX"
};
