/* XPM */
static char *result[] = {
/* columns rows colors chars-per-pixel */
"64 64 3 1 ",
"  c #472205",
". c #6F4117",
"X c #B69476",
/* pixels */
"......X.......................X.................................",
".....X.X.....................X.X................................",
".....X X.....................X .X...............................",
"....X. X......................X .X......XXX.....................",
"....X  X.......................X X.....X...XXX..................",
"...X. X........................X X.....X   ...X.................",
"...X  X........................X .X.....XXX   .XX...............",
"..X. X..........................X X........XXX ..X..............",
"..X  X....................X.....X .X..........X  .X.............",
".X. X....................X.X.....X X...........XX X.............",
".X X....................X. X......X.............X .X............",
"X. X...................X. X......................X X............",
"X X....................X  X......................X .X...........",
"X X....................X X........................X X...........",
"X X...................X. X........................X .X..........",
".X....................X X..........................X .XX........",
"......................X X...........................X ..X.......",
"...........XXX........X X............................X  X.......",
"..........X...X......X. X.............................X X.......",
".........X.   X......X X...............................X........",
"........X.  XX.......X X........................................",
"........X XX........X. X....................X...................",
".......X. X.........X X....................X.X..................",
".......X X..........X X....................X .X.................",
".......X X.........X. X.....XX..............X .X................",
".......X X.........X X.....X..X..............X .X...............",
"......X. X........X. X.....X  .X..............X .X..............",
"......X. X........X X.......XX .X..............X .X.............",
".....X. X..........X..........X .X..............X .X............",
"....X.  X......................X X...............X X............",
"...X. XX.......................X .X..............X .X...........",
"..X.  X.........................X .X..............X X...........",
"..X  X...........................X X..............X .X..........",
".X. X............................X .X..............X X..........",
".X  X........XX...................X X..............X .X.........",
".X X........X..X..................X .X..............X .X........",
"..X.........X  X...................X X...............X .X.......",
"...........X. X....................X X................X X.......",
"...........X X.....................X .X...............X X.......",
"...........X X.....................X .X...............X .X......",
"..........X. X.....................X .X................X X......",
"..........X X.......................X X................X .X.....",
"..........X X.......................X X.................X .X....",
".........X. X.......................X .X.................X .X...",
"........X. X........................X .X..................X XXX.",
"........X X...........X..............X X..................X ...X",
".......X. X..........X X.............X X...................X   X",
".....XX. X...........X X.............X .X...................XXX.",
"....X..  X...........X .X............X .X.......................",
"....X  XX............X .X.............X X.......................",
"...X. X...............X .X............X X.......................",
"...X X................X  .X...........X X........X..............",
"..X. X.................XX X...........X X.......X.X.............",
"..X  X..................X X............X........X X.............",
"...XX...................X X.....................X .X............",
".......................X. X......................X .X...........",
".......................X. X.......................X X...........",
".......................X X........................X X...........",
"......................X. X........................X .X..........",
"......................X X..........................X X..........",
".....................X. X..........................X .X.........",
".....................X. X...........................X X.........",
"......................XX............................X .X........",
"....................................................X .X........"
};
