/* XPM */
static char *result[] = {
/* columns rows colors chars-per-pixel */
"64 64 12 1 ",
"  c black",
". c #333131",
"X c #3C0960",
"o c #55477A",
"O c #74716F",
"+ c #CC2794",
"@ c #8B73CA",
"# c #EA70C1",
"$ c #B0A8A5",
"% c #B69DF7",
"& c white",
"* c None",
/* pixels */
"****************************************************************",
"****************************************************************",
"****************************************************************",
"****************************************************************",
"****************************************************************",
"****************************************************************",
"****************************************************************",
"****************************************************************",
"****************************************************************",
"****************************************************************",
"****************************************************************",
"****************************************************************",
"****************************************************************",
"****************************************************************",
"****************************************************************",
"****************************************************************",
"****************************************************************",
"****************************************************************",
"****************************************************************",
"****************************************************************",
"****************************************************************",
"****************************************************************",
"****************************************************************",
"****************************************************************",
"****************************************************************",
"******************************    ******************************",
"****************************  %@@@  ****************************",
"***************************X#%%%@@@+X***************************",
"**************************X+##%%@@+++X**************************",
"**************************X++#@@@@+++X**************************",
"************************* @++@@@@@@++@ *************************",
"************************* @@@@@@@@@@@@ *************************",
"************************* .@@@@  @@@@. *************************",
"************************* $.oo &$ oo.$ *************************",
"************************** $O. $O .O$ **************************",
"************************** $$$O  O$$$ **************************",
"*************************** $$$$$$$$ ***************************",
"****************************  $$$$  ****************************",
"******************************    ******************************",
"****************************************************************",
"****************************************************************",
"****************************************************************",
"****************************************************************",
"****************************************************************",
"****************************************************************",
"****************************************************************",
"****************************************************************",
"****************************************************************",
"****************************************************************",
"****************************************************************",
"****************************************************************",
"****************************************************************",
"****************************************************************",
"****************************************************************",
"****************************************************************",
"****************************************************************",
"****************************************************************",
"****************************************************************",
"****************************************************************",
"****************************************************************",
"****************************************************************",
"****************************************************************",
"****************************************************************",
"****************************************************************"
};
