/* XPM */
static char *_3e63d37d9f24c9394d67f55559fe6b0PThfHpERgcCaarRo[] = {
/* columns rows colors chars-per-pixel */
"64 64 14 1 ",
". c black",
"  c #8B6344",
"X c #402310",
"o c #5E351A",
"O c #2E3345",
"+ c #353F67",
"@ c #726868",
"# c #873636",
"$ c #B26847",
"% c #C5977A",
"& c #436CA3",
"* c #F6CBAF",
"= c #CEC4C4",
"- c white",
/* pixels */
"                                                                ",
"                                                                ",
"                                                                ",
"                                                                ",
"                                                                ",
"                                                                ",
"                                                                ",
"                                                                ",
"                                                                ",
"                        OOOOOOOOOOOOOOOO                        ",
"                        OOOOOOOOOOOOOOOO                        ",
"                    OOOO&&&&&&&&&&&&&&&&OOOO                    ",
"                    OOOO&&&&&&&&&&&&&&&&OOOO                    ",
"                  OO++&&++++&&&&&&&&++++&&++OO                  ",
"                  OO++&&++++&&&&&&&&++++&&++OO                  ",
"                  OO&&&&&&&&OOOOOOOO&&&&&&&&OO                  ",
"                  OO&&&&&&&&OOOOOOOO&&&&&&&&OO                  ",
"                OO++&&&&++++&&&&&&&&++++&&&&++OO                ",
"                OO++&&&&++++&&&&&&&&++++&&&&++OO                ",
"                ..++&&++&&&&&&&&&&&&&&&&++&&++..                ",
"                ..++&&++&&&&&&&&&&&&&&&&++&&++..                ",
"                ..++++&&&&&&&&&&&&&&&&&&&&++++..                ",
"                ..++++&&&&&&&&&&&&&&&&&&&&++++..                ",
"                ..++++++&&&&&&&&&&&&&&&&++++++..                ",
"                ..++++++&&&&&&&&&&&&&&&&++++++..                ",
"              oo..OO++++++++OOOOOOOO++++++++OO..oo              ",
"              oo..OO++++++++OOOOOOOO++++++++OO..oo              ",
"              ..%%..++++++OOOOOOOOOOOO++++++..%%..              ",
"              ..%%..++++++OOOOOOOOOOOO++++++..%%..              ",
"              ..%%ooOO++++++++++++++++++++OOoo%%..              ",
"              ..%%ooOO++++++++++++++++++++OOoo%%..              ",
"                ..oo%%OO==@@OOOOOOOO@@==OO%%oo..                ",
"                ..oo%%OO==@@OOOOOOOO@@==OO%%oo..                ",
"                  ..%%**--..%%%%%%%%..--**%%..                  ",
"                  ..%%**--..%%%%%%%%..--**%%..                  ",
"                    oo********************oo                    ",
"                    oo********************oo                    ",
"                    ..oo%%*****%%*****%%oo..                    ",
"                    ..oo%%*****%%*****%%oo..                    ",
"                  ..**%%..oo%%%%%%%%oo..%%**..                  ",
"                  ..**%%..oo%%%%%%%%oo..%%**..                  ",
"                oo****%%################%%****oo                ",
"                oo****%%################%%****oo                ",
"              ..**%%**XX####$$$$$$$$####XX**%%**..              ",
"              ..**%%**XX####$$$$$$$$####XX**%%**..              ",
"              ..****....XX##$$$$$$$$##XX....****..              ",
"              ..****....XX##$$$$$$$$##XX....****..              ",
"                ......++&&++OOOOOOOO++&&++......                ",
"                ......++&&++OOOOOOOO++&&++......                ",
"                    ..%%oo&&&&&&&&&&&&oo%%..                    ",
"                    ..%%oo&&&&&&&&&&&&oo%%..                    ",
"                    ..++%%..        ..%%++..                    ",
"                    ..++%%..        ..%%++..                    ",
"                      ....            ....                      ",
"                      ....            ....                      ",
"                                                                ",
"                                                                ",
"                                                                ",
"                                                                ",
"                                                                ",
"                                                                ",
"                                                                ",
"                                                                ",
"                                                                "
};
