/* XPM */
static char *d88191a32670454494cc2660d5210623e2qYgPgVq1vstX4i[] = {
/* columns rows colors chars-per-pixel */
"64 64 12 1 ",
"  c #8B6344",
". c black",
"X c #402310",
"o c #5E351A",
"O c #2E3345",
"+ c #353F67",
"@ c #43454B",
"# c #873636",
"$ c #B26847",
"% c #C5977A",
"& c #436CA3",
"* c #F6CBAF",
/* pixels */
"                                                                ",
"                                                                ",
"                                                                ",
"                                                                ",
"                                                                ",
"                                                                ",
"                                                                ",
"                                                                ",
"                                                                ",
"                        OOOOOOOOOOOOOOOO                        ",
"                        OOOOOOOOOOOOOOOO                        ",
"                    OOOO&&&&&&&&&&&&&&&&OOOO                    ",
"                    OOOO&&&&&&&&&&&&&&&&OOOO                    ",
"                  OO++&&++++&&&&&&&&++++&&++OO                  ",
"                  OO++&&++++&&&&&&&&++++&&++OO                  ",
"                  OO&&&&&&&&OOOOOOOO&&&&&&&&OO                  ",
"                  OO&&&&&&&&OOOOOOOO&&&&&&&&OO                  ",
"                OO++&&&&++++&&&&&&&&++++&&&&++OO                ",
"                OO++&&&&++++&&&&&&&&++++&&&&++OO                ",
"                ..++&&++&&&&&&&&&&&&&&&&++&&++..                ",
"                ..++&&++&&&&&&&&&&&&&&&&++&&++..                ",
"                ..++++&&&&&&&&&&&&&&&&&&&&++++..                ",
"                ..++++&&&&&&&&&&&&&&&&&&&&++++..                ",
"                ..++++++&&&&&&&&&&&&&&&&++++++..                ",
"                ..++++++&&&&&&&&&&&&&&&&++++++..                ",
"                ..OO++++++++++++++++++++++++OO..                ",
"                ..OO++++++++++++++++++++++++OO..                ",
"              ..%%&&OO++++++++++++++++++++OO&&%%..              ",
"              ..%%&&OO++++++++++++++++++++OO&&%%..              ",
"              ..%%++&&OOOO++++++++++++OOOO&&++%%..              ",
"              ..%%++&&OOOO++++++++++++OOOO&&++%%..              ",
"                ....&&&&&&OOOOOOOOOOOO&&&&&&....                ",
"                ....&&&&&&OOOOOOOOOOOO&&&&&&....                ",
"                  ..@@&&&&&&&&&&&&&&&&&&&&@@..                  ",
"                  ..@@&&&&&&&&&&&&&&&&&&&&@@..                  ",
"                  ..@@@@OO&&&&&&&&&&&&OO@@..                    ",
"                  ..@@@@OO&&&&&&&&&&&&OO@@..                    ",
"                oo%%..XX@@OOOOOOOOOOOO@@..                      ",
"                oo%%..XX@@OOOOOOOOOOOO@@..                      ",
"              ..%%%%%%%%..XX########XX%%**oo                    ",
"              ..%%%%%%%%..XX########XX%%**oo                    ",
"              ..%%%%XXXX##############%%****..                  ",
"              ..%%%%XXXX##############%%****..                  ",
"                ......######$$$$$$$$####**%%..                  ",
"                ......######$$$$$$$$####**%%..                  ",
"                    ..####$$$$$$$$$$##XXoo****..                ",
"                    ..####$$$$$$$$$$##XXoo****..                ",
"                    ..++&&++OOOOOOOO++&&..%%%%..                ",
"                    ..++&&++OOOOOOOO++&&..%%%%..                ",
"                    ..%%oo&&&&&&&&&&OOOO......                  ",
"                    ..%%oo&&&&&&&&&&OOOO......                  ",
"                    ..******oo........                          ",
"                    ..******oo........                          ",
"                      ..****oo                                  ",
"                      ..****oo                                  ",
"                      ..&&&&..                                  ",
"                      ..&&&&..                                  ",
"                        ....                                    ",
"                        ....                                    ",
"                                                                ",
"                                                                ",
"                                                                ",
"                                                                ",
"                                                                "
};
