/* XPM */
static char *_7d2e7af0f6f46b2897066243183c428Tkk08BQRmAca3Lzj[] = {
/* columns rows colors chars-per-pixel */
"64 64 14 1 ",
"  c #8B6344",
". c black",
"X c #402310",
"o c #5E351A",
"O c #2E3345",
"+ c #353F67",
"@ c #454141",
"# c #873636",
"$ c #B26847",
"% c #C5977A",
"& c #436CA3",
"* c #F6CBAF",
"= c #CEC4C4",
"- c white",
/* pixels */
"                                                                ",
"                                                                ",
"                                                                ",
"                                                                ",
"                                                                ",
"                                                                ",
"                                                                ",
"                                                                ",
"                                                                ",
"                          OOOOOOOOOOOO                          ",
"                          OOOOOOOOOOOO                          ",
"                      ....++++&&&&++++OOOO                      ",
"                      ....++++&&&&++++OOOO                      ",
"                    ..++&&&&&&OOOOOO&&&&++OO                    ",
"                    ..++&&&&&&OOOOOO&&&&++OO                    ",
"                ....++&&&&++++&&&&++++&&&&++..                  ",
"                ....++&&&&++++&&&&++++&&&&++..                  ",
"              ..&&OO++&&++&&&&&&&&&&&&++&&++..                  ",
"              ..&&OO++&&++&&&&&&&&&&&&++&&++..                  ",
"            ..&&&&++++++&&&&&&&&&&&&&&&&++++++..                ",
"            ..&&&&++++++&&&&&&&&&&&&&&&&++++++..                ",
"            ..&&&&++++++++&&&&&&&&&&&&++++++OO..                ",
"            ..&&&&++++++++&&&&&&&&&&&&++++++OO..                ",
"            ..&&&&OO++++++++++++++++++++++OOOO..                ",
"            ..&&&&OO++++++++++++++++++++++OOOO..                ",
"            ..OO&&&&OO++++++++++++++++++++++++..                ",
"            ..OO&&&&OO++++++++++++++++++++++++..                ",
"              ....OO++OOOO++++++++++++++++OOOO                  ",
"              ....OO++OOOO++++++++++++++++OOOO                  ",
"                  ..@@@@@@OOOOOOOOOOOOOOOOOO..                  ",
"                  ..@@@@@@OOOOOOOOOOOOOOOOOO..                  ",
"                    @@@@@@@@@@%%@@%%%%==@@%%..                  ",
"                    @@@@@@@@@@%%@@%%%%==@@%%..                  ",
"                    ..@@@@@@%%%%@@%%%%--..%%oo                  ",
"                    ..@@@@@@%%%%@@%%%%--..%%oo                  ",
"                      ..@@@@%%%%%%%%********%%                  ",
"                      ..@@@@%%%%%%%%********%%                  ",
"                        ....oo%%%%%%%%****oo                    ",
"                        ....oo%%%%%%%%****oo                    ",
"                            XXXX##%%oooooo                      ",
"                            XXXX##%%oooooo                      ",
"                            XX....oo$$##                        ",
"                            XX....oo$$##                        ",
"                          XX..****..$$$$XX                      ",
"                          XX..****..$$$$XX                      ",
"                          XX..****..$$$$..                      ",
"                          XX..****..$$$$..                      ",
"                        ....%%%%..XXXX##..                      ",
"                        ....%%%%..XXXX##..                      ",
"                      ..++..%%%%..&&&&XX..                      ",
"                      ..++..%%%%..&&&&XX..                      ",
"                      ..++++....&&&&++%%&&++                    ",
"                      ..++++....&&&&++%%&&++                    ",
"                      ..++++........&&&&&&..                    ",
"                      ..++++........&&&&&&..                    ",
"                        ....        ......                      ",
"                        ....        ......                      ",
"                                                                ",
"                                                                ",
"                                                                ",
"                                                                ",
"                                                                ",
"                                                                ",
"                                                                "
};
