/* XPM */
static char *f660e1ddb52b4e4b9d7aec765cd31169zRkc9pW8fS3Za88v[] = {
/* columns rows colors chars-per-pixel */
"64 64 14 1 ",
"  c None",
". c black",
"X c #402310",
"o c #5E351A",
"O c #2E3345",
"+ c #353F67",
"@ c #454141",
"# c #873636",
"$ c #B26847",
"% c #C5977A",
"& c #436CA3",
"* c #F6CBAF",
"= c #CEC4C4",
"- c white",
/* pixels */
"                                                                ",
"                                                                ",
"                                                                ",
"                                                                ",
"                                                                ",
"                                                                ",
"                                                                ",
"                                                                ",
"                                                                ",
"                          OOOOOOOOOOOO                          ",
"                          OOOOOOOOOOOO                          ",
"                      ....++++&&&&++++OOOO                      ",
"                      ....++++&&&&++++OOOO                      ",
"                    ..++&&&&&&OOOOOO&&&&++OO                    ",
"                    ..++&&&&&&OOOOOO&&&&++OO                    ",
"                ....++&&&&++++&&&&++++&&&&++..                  ",
"                ....++&&&&++++&&&&++++&&&&++..                  ",
"              ..&&OO++&&++&&&&&&&&&&&&++&&++..                  ",
"              ..&&OO++&&++&&&&&&&&&&&&++&&++..                  ",
"            ..&&&&++++++&&&&&&&&&&&&&&&&++++++..                ",
"            ..&&&&++++++&&&&&&&&&&&&&&&&++++++..                ",
"            ..&&&&++++++++&&&&&&&&&&&&++++++OO..                ",
"            ..&&&&++++++++&&&&&&&&&&&&++++++OO..                ",
"            ..&&&&OO++++++++++++++++++++++OOOO..                ",
"            ..&&&&OO++++++++++++++++++++++OOOO..                ",
"            ..OO&&&&OO++++++++++++++++++++++++..                ",
"            ..OO&&&&OO++++++++++++++++++++++++..                ",
"              ....OO++OOOO++++++++++++++++OOOO                  ",
"              ....OO++OOOO++++++++++++++++OOOO                  ",
"                  ..@@@@@@OOOOOOOOOOOOOOOOOO..                  ",
"                  ..@@@@@@OOOOOOOOOOOOOOOOOO..                  ",
"                    @@@@@@@@@@%%@@%%%%==@@%%..                  ",
"                    @@@@@@@@@@%%@@%%%%==@@%%..                  ",
"                    ..@@@@@@%%%%@@%%%%--..%%oo                  ",
"                    ..@@@@@@%%%%@@%%%%--..%%oo                  ",
"                      ..@@@@%%%%%%%%********%%                  ",
"                      ..@@@@%%%%%%%%********%%                  ",
"                        ....oo%%%%%%%%****oo                    ",
"                        ....oo%%%%%%%%****oo                    ",
"                          ..XXXX##%%oooooo                      ",
"                          ..XXXX##%%oooooo                      ",
"                        ..%%XX####....##                        ",
"                        ..%%XX####....##                        ",
"                        ..%%####..****$$XX                      ",
"                        ..%%####..****$$XX                      ",
"                          ..####..****..XX                      ",
"                          ..####..****..XX                      ",
"                          ..++##..%%%%%%..OO                    ",
"                          ..++##..%%%%%%..OO                    ",
"                        ..**++++++oo%%%%..++..                  ",
"                        ..**++++++oo%%%%..++..                  ",
"                      ..&&++****........++++..                  ",
"                      ..&&++****........++++..                  ",
"                      ..&&&&&&..        ....                    ",
"                      ..&&&&&&..        ....                    ",
"                        ......                                  ",
"                        ......                                  ",
"                                                                ",
"                                                                ",
"                                                                ",
"                                                                ",
"                                                                ",
"                                                                ",
"                                                                "
};
