/* XPM */
static char *dc3ef4aee406466ea2cd2bd3c7d0b60bT7UmNSyjh7eGBN4t[] = {
/* columns rows colors chars-per-pixel */
"64 64 3 1 ",
"  c #3D311A",
". c #8B6344",
"X c #A07F44",
/* pixels */
"................................................................",
"................................................................",
"......... X.......................................... X.........",
"......... X.......................................... X.........",
"......... X.......................................... X.........",
"......... X.......................................... X.........",
"......... X.......................................... X.........",
"......... XXXXXXXXXXXXXXXXXXXXXXXXXXXXXXXXXXXXXXXXXXXXX.........",
"......... X                                           X.........",
"......... X.......................................... X.........",
"......... X.......................................... X.........",
"......... X.......................................... X.........",
"......... X.......................................... X.........",
"......... XXXXXXXXXXXXXXXXXXXXXXXXXXXXXXXXXXXXXXXXXXXXX.........",
"......... X                                           X.........",
"......... X.......................................... X.........",
"......... X.......................................... X.........",
"......... X.......................................... X.........",
"......... X.......................................... X.........",
"......... XXXXXXXXXXXXXXXXXXXXXXXXXXXXXXXXXXXXXXXXXXXXX.........",
"......... X                                           X.........",
"......... X.......................................... X.........",
"......... X.......................................... X.........",
"......... X.......................................... X.........",
"......... X.......................................... X.........",
"......... XXXXXXXXXXXXXXXXXXXXXXXXXXXXXXXXXXXXXXXXXXXXX.........",
"......... X                                           X.........",
"......... X.......................................... X.........",
"......... X.......................................... X.........",
"......... X.......................................... X.........",
"......... X.......................................... X.........",
"......... XXXXXXXXXXXXXXXXXXXXXXXXXXXXXXXXXXXXXXXXXXXXX.........",
"......... X                                           X.........",
"......... X.......................................... X.........",
"......... X.......................................... X.........",
"......... X.......................................... X.........",
"......... X.......................................... X.........",
"......... XXXXXXXXXXXXXXXXXXXXXXXXXXXXXXXXXXXXXXXXXXXXX.........",
"......... X                                           X.........",
"......... X.......................................... X.........",
"......... X.......................................... X.........",
"......... X.......................................... X.........",
"......... X.......................................... X.........",
"......... XXXXXXXXXXXXXXXXXXXXXXXXXXXXXXXXXXXXXXXXXXXXX.........",
"......... X                                           X.........",
"......... X.......................................... X.........",
"......... X.......................................... X.........",
"......... X.......................................... X.........",
"......... X.......................................... X.........",
"......... XXXXXXXXXXXXXXXXXXXXXXXXXXXXXXXXXXXXXXXXXXXXX.........",
"......... X                                           X.........",
"......... X.......................................... X.........",
"......... X.......................................... X.........",
"......... X.......................................... X.........",
"......... X.......................................... X.........",
"......... XXXXXXXXXXXXXXXXXXXXXXXXXXXXXXXXXXXXXXXXXXXXX.........",
"......... X                                           X.........",
"......... X.......................................... X.........",
"......... X.......................................... X.........",
"......... X.......................................... X.........",
"......... X.......................................... X.........",
"......... X.......................................... X.........",
"................................................................",
"................................................................"
};
