/* XPM */
static char *_d0ffceb0e404df1d35e759d0129e4e8vLwAPzOAR01qxjRP[] = {
/* columns rows colors chars-per-pixel */
"64 64 6 1 ",
"  c #2E2515",
". c #3D311A",
"X c #624E2B",
"o c #8B6344",
"O c #A07F44",
"+ c #9E9A93",
/* pixels */
"oooooooooooooooooooooooooooooooooooooooooooooooooooooooooooooooo",
"oooooooooooooooooooooooooooooooooooooooooooooooooooooooooooooooo",
"ooooooooo.Ooooooooooooooooooooooooooooooooooooooooooo.Oooooooooo",
"ooooooooo.Ooooooooooooooooooooooooooooooooooooooooooo.Oooooooooo",
"oooooo Xo.Oooooooooooooooooooooooooooooooooooooooo Xo.Oooooooooo",
"oooooo Xo.Oooooooooooooooooooooooooooooooooooooooo Xo.Oooooooooo",
"oooooo Xo.Oooooooooooooooooooooooooooooooooooooooo Xo.Oooooooooo",
"oooooo Xo.OOOOOOOOOOOOOOOOOOOOOOOOOOOOOOOOOOOOOOOOOOOOOooooooooo",
"oooooo Xo.O...........................................Oooooooooo",
"oooooo XX.+XXXXXXXXXXXXXXXXXXXXXXXXXXXXXXXXXXXXXXXXXo.+ooooooooo",
"oooooo X ++                                        Xo++ooooooooo",
"oooooo X++Oooooooooooooooooooooooooooooooooooooooo X++Oooooooooo",
"oooooo ++.Oooooooooooooooooooooooooooooooooooooooo ++.Oooooooooo",
"oooooo++o.OOOOOOOOOOOOOOOOOOOOOOOOOOOOOOOOOOOOOOOOOOOOOooooooooo",
"oooooo+Xo.O...........................................Oooooooooo",
"oooooo XX.OXXXXXXXXXXXXXXXXXXXXXXXXXXXXXXXXXXXXXXXXXo.Oooooooooo",
"oooooo X .O                                        Xo.Oooooooooo",
"oooooo Xo.Oooooooooooooooooooooooooooooooooooooooo Xo.Oooooooooo",
"oooooo Xo.Oooooooooooooooooooooooooooooooooooooooo Xo.Oooooooooo",
"oooooo Xo.OOOOOOOOOOOOOOOOOOOOOOOOOOOOOOOOOOOOOOOOOOOOOooooooooo",
"oooooo Xo.O...........................................Oooooooooo",
"oooooo XX.OXXXXXXXXXXXXXXXXXXXXXXXXXXXXXXXXXXXXXXXXXo.Oooooooooo",
"oooooo X .O                                        Xo.Oooooooooo",
"oooooo Xo.Oooooooooooooooooooooooooooooooooooooooo Xo.Oooooooooo",
"oooooo Xo.Oooooooooooooooooooooooooooooooooooooooo Xo.Oooooooooo",
"oooooo Xo.OOOOOOOOOOOOOOOOOOOOOOOOOOOOOOOOOOOOOOOOOOOOOooooooooo",
"oooooo Xo.O...........................................Oooooooooo",
"oooooo XX.+XXXXXXXXXXXXXXXXXXXXXXXXXXXXXXXXXXXXXXXXXo.+ooooooooo",
"oooooo X ++                                        Xo++ooooooooo",
"oooooo X++Oooooooooooooooooooooooooooooooooooooooo X++Oooooooooo",
"oooooo ++.Oooooooooooooooooooooooooooooooooooooooo ++.Oooooooooo",
"oooooo++o.OOOOOOOOOOOOOOOOOOOOOOOOOOOOOOOOOOOOOOOOOOOOOooooooooo",
"oooooo+Xo.O...........................................Oooooooooo",
"oooooo XX.OXXXXXXXXXXXXXXXXXXXXXXXXXXXXXXXXXXXXXXXXXo.Oooooooooo",
"oooooo X .O                                        Xo.Oooooooooo",
"oooooo Xo.Oooooooooooooooooooooooooooooooooooooooo Xo.Oooooooooo",
"oooooo Xo.Oooooooooooooooooooooooooooooooooooooooo Xo.Oooooooooo",
"oooooo Xoooooooooooooooooooooooooooooooooooooooooo Xoooooooooooo",
"oooooo Xoooooooooooooooooooooooooooooooooooooooooo Xoooooooooooo",
"oooooooooooooooooooooooooooooooooooooooooooooooooooooooooooooooo",
"oooooooooooooooooooooooooooooooooooooooooooooooooooooooooooooooo",
"oooooooooooooooooooooooooooooooooooooooooooooooooooooooooooooooo",
"oooooooooooooooooooooooooooooooooooooooooooooooooooooooooooooooo",
"oooooooooooooooooooooooooooooooooooooooooooooooooooooooooooooooo",
"oooooooooooooooooooooooooooooooooooooooooooooooooooooooooooooooo",
"oooooooooooooooooooooooooooooooooooooooooooooooooooooooooooooooo",
"oooooooooooooooooooooooooooooooooooooooooooooooooooooooooooooooo",
"oooooooooooooooooooooooooooooooooooooooooooooooooooooooooooooooo",
"oooooooooooooooooooooooooooooooooooooooooooooooooooooooooooooooo",
"oooooooooooooooooooooooooooooooooooooooooooooooooooooooooooooooo",
"oooooooooooooooooooooooooooooooooooooooooooooooooooooooooooooooo",
"oooooooooooooooooooooooooooooooooooooooooooooooooooooooooooooooo",
"oooooooooooooooooooooooooooooooooooooooooooooooooooooooooooooooo",
"oooooooooooooooooooooooooooooooooooooooooooooooooooooooooooooooo",
"oooooooooooooooooooooooooooooooooooooooooooooooooooooooooooooooo",
"oooooooooooooooooooooooooooooooooooooooooooooooooooooooooooooooo",
"oooooooooooooooooooooooooooooooooooooooooooooooooooooooooooooooo",
"oooooooooooooooooooooooooooooooooooooooooooooooooooooooooooooooo",
"oooooooooooooooooooooooooooooooooooooooooooooooooooooooooooooooo",
"oooooooooooooooooooooooooooooooooooooooooooooooooooooooooooooooo",
"oooooooooooooooooooooooooooooooooooooooooooooooooooooooooooooooo",
"oooooooooooooooooooooooooooooooooooooooooooooooooooooooooooooooo",
"oooooooooooooooooooooooooooooooooooooooooooooooooooooooooooooooo",
"oooooooooooooooooooooooooooooooooooooooooooooooooooooooooooooooo"
};
