/* XPM */
static char *_af56bb8fbbd48a6dec1c808a6b396a0RRW5rQ1QM1q9fmQF[] = {
/* columns rows colors chars-per-pixel */
"64 64 12 1 ",
"  c None",
". c black",
"X c #402310",
"o c #5E351A",
"O c #2E3345",
"+ c #353F67",
"@ c #43454B",
"# c #873636",
"$ c #B26847",
"% c #C5977A",
"& c #436CA3",
"* c #F6CBAF",
/* pixels */
"                                                                ",
"                                                                ",
"                                                                ",
"                                                                ",
"                                                                ",
"                                                                ",
"                                                                ",
"                                                                ",
"                                                                ",
"                        OOOOOOOOOOOOOOOO                        ",
"                        OOOOOOOOOOOOOOOO                        ",
"                    OOOO&&&&&&&&&&&&&&&&OOOO                    ",
"                    OOOO&&&&&&&&&&&&&&&&OOOO                    ",
"                  OO++&&++++&&&&&&&&++++&&++OO                  ",
"                  OO++&&++++&&&&&&&&++++&&++OO                  ",
"                  OO&&&&&&&&OOOOOOOO&&&&&&&&OO                  ",
"                  OO&&&&&&&&OOOOOOOO&&&&&&&&OO                  ",
"                OO++&&&&++++&&&&&&&&++++&&&&++OO                ",
"                OO++&&&&++++&&&&&&&&++++&&&&++OO                ",
"                ..++&&++&&&&&&&&&&&&&&&&++&&++..                ",
"                ..++&&++&&&&&&&&&&&&&&&&++&&++..                ",
"                ..++++&&&&&&&&&&&&&&&&&&&&++++..                ",
"                ..++++&&&&&&&&&&&&&&&&&&&&++++..                ",
"                ..++++++&&&&&&&&&&&&&&&&++++++..                ",
"                ..++++++&&&&&&&&&&&&&&&&++++++..                ",
"                ..OO++++++++++++++++++++++++OO..                ",
"                ..OO++++++++++++++++++++++++OO..                ",
"              ..%%&&OO++++++++++++++++++++OO&&%%..              ",
"              ..%%&&OO++++++++++++++++++++OO&&%%..              ",
"              ..%%++&&OOOO++++++++++++OOOO&&++%%..              ",
"              ..%%++&&OOOO++++++++++++OOOO&&++%%..              ",
"                ....&&&&&&OOOOOOOOOOOO&&&&&&....                ",
"                ....&&&&&&OOOOOOOOOOOO&&&&&&....                ",
"                  ..@@&&&&&&&&&&&&&&&&&&&&@@..                  ",
"                  ..@@&&&&&&&&&&&&&&&&&&&&@@..                  ",
"                    ..@@OO&&&&&&&&&&&&OO@@@@..                  ",
"                    ..@@OO&&&&&&&&&&&&OO@@@@..                  ",
"                      ..@@OOOOOOOOOOOO@@XX..%%oo                ",
"                      ..@@OOOOOOOOOOOO@@XX..%%oo                ",
"                    oo**%%XX########XX..%%%%%%%%..              ",
"                    oo**%%XX########XX..%%%%%%%%..              ",
"                  ..****%%##############XXXX%%%%..              ",
"                  ..****%%##############XXXX%%%%..              ",
"                  ..%%**####$$$$$$$$######......                ",
"                  ..%%**####$$$$$$$$######......                ",
"                ..****ooXX##$$$$$$$$$$####..                    ",
"                ..****ooXX##$$$$$$$$$$####..                    ",
"                ..%%%%..&&++OOOOOOOO++&&++..                    ",
"                ..%%%%..&&++OOOOOOOO++&&++..                    ",
"                  ......OOOO&&&&&&&&&&oo%%..                    ",
"                  ......OOOO&&&&&&&&&&oo%%..                    ",
"                          ........oo******..                    ",
"                          ........oo******..                    ",
"                                  oo****..                      ",
"                                  oo****..                      ",
"                                  ..&&&&..                      ",
"                                  ..&&&&..                      ",
"                                    ....                        ",
"                                    ....                        ",
"                                                                ",
"                                                                ",
"                                                                ",
"                                                                ",
"                                                                "
};
