/* XPM */
static char *d1744c3864b74481f29202c5e0367c2fDEiAF8bscZTOD0xA[] = {
/* columns rows colors chars-per-pixel */
"64 64 14 1 ",
"  c None",
". c black",
"X c #402310",
"o c #5E351A",
"O c #2E3345",
"+ c #353F67",
"@ c #726868",
"# c #873636",
"$ c #B26847",
"% c #C5977A",
"& c #436CA3",
"* c #F6CBAF",
"= c #CEC4C4",
"- c white",
/* pixels */
"                                                                ",
"                                                                ",
"                                                                ",
"                                                                ",
"                                                                ",
"                                                                ",
"                                                                ",
"                                                                ",
"                                                                ",
"                        OOOOOOOOOOOOOOOO                        ",
"                        OOOOOOOOOOOOOOOO                        ",
"                    OOOO&&&&&&&&&&&&&&&&OOOO                    ",
"                    OOOO&&&&&&&&&&&&&&&&OOOO                    ",
"                  OO++&&++++&&&&&&&&++++&&++OO                  ",
"                  OO++&&++++&&&&&&&&++++&&++OO                  ",
"                  OO&&&&&&&&OOOOOOOO&&&&&&&&OO                  ",
"                  OO&&&&&&&&OOOOOOOO&&&&&&&&OO                  ",
"                OO++&&&&++++&&&&&&&&++++&&&&++OO                ",
"                OO++&&&&++++&&&&&&&&++++&&&&++OO                ",
"                ..++&&++&&&&&&&&&&&&&&&&++&&++..                ",
"                ..++&&++&&&&&&&&&&&&&&&&++&&++..                ",
"                ..++++&&&&&&&&&&&&&&&&&&&&++++..                ",
"                ..++++&&&&&&&&&&&&&&&&&&&&++++..                ",
"                ..++++++&&&&&&&&&&&&&&&&++++++..                ",
"                ..++++++&&&&&&&&&&&&&&&&++++++..                ",
"              oo..OO++++++++OOOOOOOO++++++++OO..oo              ",
"              oo..OO++++++++OOOOOOOO++++++++OO..oo              ",
"              ..%%..++++++OOOOOOOOOOOO++++++..%%..              ",
"              ..%%..++++++OOOOOOOOOOOO++++++..%%..              ",
"              ..%%ooOO++++++++++++++++++++OOoo%%..              ",
"              ..%%ooOO++++++++++++++++++++OOoo%%..              ",
"                ..oo%%OO==@@OOOOOOOO@@==OO%%oo..                ",
"                ..oo%%OO==@@OOOOOOOO@@==OO%%oo..                ",
"                  ..%%**--..%%%%%%%%..--**%%..                  ",
"                  ..%%**--..%%%%%%%%..--**%%..                  ",
"                    oo********************oo..                  ",
"                    oo********************oo..                  ",
"                    ..oo%%*****%%*****%%oo....                  ",
"                    ..oo%%*****%%*****%%oo....                  ",
"                    oo**..XX%%%%%%%%XX..%%%%%%..                ",
"                    oo**..XX%%%%%%%%XX..%%%%%%..                ",
"                  ..****%%##############XX%%%%%%..              ",
"                  ..****%%##############XX%%%%%%..              ",
"                  ..%%%%####$$$$$$$$####XX..%%%%..              ",
"                  ..%%%%####$$$$$$$$####XX..%%%%..              ",
"                ..****ooXX##$$$$$$$$$$##..  ....                ",
"                ..****ooXX##$$$$$$$$$$##..  ....                ",
"                ..%%%%..&&++OOOOOOOO++&&++..                    ",
"                ..%%%%..&&++OOOOOOOO++&&++..                    ",
"                  ....  ..OO&&&&&&&&&&oo%%..                    ",
"                  ....  ..OO&&&&&&&&&&oo%%..                    ",
"                          ........oo******..                    ",
"                          ........oo******..                    ",
"                                  oo****..                      ",
"                                  oo****..                      ",
"                                  ..&&&&..                      ",
"                                  ..&&&&..                      ",
"                                    ....                        ",
"                                    ....                        ",
"                                                                ",
"                                                                ",
"                                                                ",
"                                                                ",
"                                                                "
};
