/* XPM */
static char *ffbce96b165f4c6aee451c6829ec1d635WV0uG8Cj90npfJK[] = {
/* columns rows colors chars-per-pixel */
"64 64 9 1 ",
"  c None",
". c #181411",
"X c #332921",
"o c #58483C",
"O c #705D4E",
"+ c #836E5E",
"@ c #9A8472",
"# c #AB927F",
"$ c #CCBAAD",
/* pixels */
"                                                                ",
"                                                                ",
"                                                                ",
"                                                                ",
"                                                                ",
"                                                                ",
"                                                                ",
"                                                                ",
"                                                                ",
"                                                                ",
"                                                                ",
"                                                                ",
"                            OOOOOOO                             ",
"                          OO#####@@OO                           ",
"                         O##OO@@@#@@@O                          ",
"                        X$@@@@OO@@@@#$.                         ",
"                        X$#@@@@@@@#$Oo.                         ",
"                        XO$$#@@@#$$Oooo                         ",
"                       OOOO@$$$$$OoooooOO                       ",
"                     OO##OOOO@@@oooooo+@@OO                     ",
"                    O#@@@@OOOO@oooooo+@@@@@O                    ",
"                   O#@@$@@@OOOOoooo+@@@@@@@#.                   ",
"                  X#@@@@@@@@@OOoo+@@@@@@@@#XX.                  ",
"                  X#@@@@@$$@@#@@@@@@@@@@#$XXX.                  ",
"                  X$$##$$@@@@@@@@@@@@###$oXXXX.                 ",
"                 XOO#$$#@@@$@@@@@###++OOooXXXX.                 ",
"                 XO@OO#$#@@@@###OO++@#OooXXXX..                 ",
"                 XOOOOOO$##OOO++@@@@#$oooXO@@@.                 ",
"                OOOOOOOOOoo@@@@@@@@#$oooXO@@@@@.                ",
"               O#@@+OOOOOo#$#@@@@@#$ooooX##@@@@#.               ",
"              O#@@@@@+OOoOOO$$###$$oooooXO$$###$.               ",
"             O#@#@@@@@@OXOOOO#$$$OoooooXOOOO$$$oo.              ",
"            O$#@@@@@@@@@@XOOOOO#OoooooOOOOOOOOOoo.              ",
"            X@$#@@@#@@@@#XOOOOOOooooO@@@@@OOOOOoo.              ",
"            XO@$#@@@@@##OoXOOOOOoooO@@@@@@@@OOooo.              ",
"           XOOO@$#@@@#$OooXooooOooo$@@@@@@@@@@oooo.             ",
"           XOOO@@$#@#$OoooXX@@+oooO@$$$$$$$$$Ooooo.             ",
"           XOXO@O@$$$OooXoX@@@@@+oOO@$@@@@$OoooooX.             ",
"           XOO@OOOO$OooooX@@@@@@@@+OO@$@$$oooooooX.             ",
"           XOO@OOOO@ooooX@@@@@@@@@@+OO@$Ooooo.oooXX.            ",
"           XOO@OO+O@oXoX#@@@@@@+@@@@XOO@ooooo.oooXX.            ",
"           .O@OOOOOooooX$##@@OO@@@@#XOO@oooXo.ooXXX.            ",
"            .@OOOO@oooXX@$$OO@@@@#$oXOOO@ooooo.oXXX.            ",
"             .OOOO@oXXXOOOo$$###$$oooXOO@ooooo.oXX.             ",
"              ..OOXXXXXOOOoO@$$$@ooooXOOOooooo.X..              ",
"                ..XXXX.OOoOOO@@ooooXoXOOOOXooX..                ",
"                  .....OOoOOOO@oooooXX.OOOoo..                  ",
"                      .OoOOOOO@ooooXXX......                    ",
"                      .OoOoOOOO@ooXXX.                          ",
"                       .oOOOOOO@oXXX.                           ",
"                        ..OOOOO@XX..                            ",
"                          ........                              ",
"                                                                ",
"                                                                ",
"                                                                ",
"                                                                ",
"                                                                ",
"                                                                ",
"                                                                ",
"                                                                ",
"                                                                ",
"                                                                ",
"                                                                ",
"                                                                "
};
