/* XPM */
static char *_29b3093ac7347e19ad757ab95ecf639bbs9gOEAs0vbdNWf[] = {
/* columns rows colors chars-per-pixel */
"64 64 12 1 ",
". c black",
"  c #8B6344",
"X c #402310",
"o c #5E351A",
"O c #2E3345",
"+ c #353F67",
"@ c #43454B",
"# c #873636",
"$ c #B26847",
"% c #C5977A",
"& c #436CA3",
"* c #F6CBAF",
/* pixels */
"                                                                ",
"                                                                ",
"                                                                ",
"                                                                ",
"                                                                ",
"                                                                ",
"                                                                ",
"                                                                ",
"                                                                ",
"                        OOOOOOOOOOOOOOOO                        ",
"                        OOOOOOOOOOOOOOOO                        ",
"                    OOOO&&&&&&&&&&&&&&&&OOOO                    ",
"                    OOOO&&&&&&&&&&&&&&&&OOOO                    ",
"                  OO++&&++++&&&&&&&&++++&&++OO                  ",
"                  OO++&&++++&&&&&&&&++++&&++OO                  ",
"                  OO&&&&&&&&OOOOOOOO&&&&&&&&OO                  ",
"                  OO&&&&&&&&OOOOOOOO&&&&&&&&OO                  ",
"                OO++&&&&++++&&&&&&&&++++&&&&++OO                ",
"                OO++&&&&++++&&&&&&&&++++&&&&++OO                ",
"                ..++&&++&&&&&&&&&&&&&&&&++&&++..                ",
"                ..++&&++&&&&&&&&&&&&&&&&++&&++..                ",
"                ..++++&&&&&&&&&&&&&&&&&&&&++++..                ",
"                ..++++&&&&&&&&&&&&&&&&&&&&++++..                ",
"                ..++++++&&&&&&&&&&&&&&&&++++++..                ",
"                ..++++++&&&&&&&&&&&&&&&&++++++..                ",
"                ..OO++++++++++++++++++++++++OO..                ",
"                ..OO++++++++++++++++++++++++OO..                ",
"              ..%%&&OO++++++++++++++++++++OO&&%%..              ",
"              ..%%&&OO++++++++++++++++++++OO&&%%..              ",
"              ..%%++&&OOOO++++++++++++OOOO&&++%%..              ",
"              ..%%++&&OOOO++++++++++++OOOO&&++%%..              ",
"                ....&&&&&&OOOOOOOOOOOO&&&&&&....                ",
"                ....&&&&&&OOOOOOOOOOOO&&&&&&....                ",
"                  ..@@&&&&&&&&&&&&&&&&&&&&@@..                  ",
"                  ..@@&&&&&&&&&&&&&&&&&&&&@@..                  ",
"                    @@@@OO&&&&&&&&&&&&OO@@@@                    ",
"                    @@@@OO&&&&&&&&&&&&OO@@@@                    ",
"                    ..XX@@OOOOOOOOOOOO@@XX..                    ",
"                    ..XX@@OOOOOOOOOOOO@@XX..                    ",
"                  ..**%%..############..%%**..                  ",
"                  ..**%%..############..%%**..                  ",
"                oo****%%################%%****oo                ",
"                oo****%%################%%****oo                ",
"              ..**%%**XX####$$$$$$$$####XX**%%**..              ",
"              ..**%%**XX####$$$$$$$$####XX**%%**..              ",
"              ..****....XX##$$$$$$$$##XX....****..              ",
"              ..****....XX##$$$$$$$$##XX....****..              ",
"                ......++&&++OOOOOOOO++&&++......                ",
"                ......++&&++OOOOOOOO++&&++......                ",
"                    ..%%oo&&&&&&&&&&&&oo%%..                    ",
"                    ..%%oo&&&&&&&&&&&&oo%%..                    ",
"                    ..++++..        ..++++..                    ",
"                    ..++++..        ..++++..                    ",
"                      ....            ....                      ",
"                      ....            ....                      ",
"                                                                ",
"                                                                ",
"                                                                ",
"                                                                ",
"                                                                ",
"                                                                ",
"                                                                ",
"                                                                ",
"                                                                "
};
